<svg xmlns="http://www.w3.org/2000/svg" xmlns:xlink="http://www.w3.org/1999/xlink" viewBox="0 0 512 512" width="64px" height="64px">
    <defs>
        <linearGradient id="Bv8aW6ev2NF7MS3hz4MA3a" x1="255.5" x2="255.5" y1="15.879" y2="487.27" gradientUnits="userSpaceOnUse">
            <stop offset="0" stop-color="#00efd1" />
            <stop offset="1" stop-color="#00acea" />
        </linearGradient>
        <linearGradient id="Bv8aW6ev2NF7MS3hz4MA3b" x1="254.5" x2="254.5" y1="15.879" y2="487.27" xlink:href="#Bv8aW6ev2NF7MS3hz4MA3a" />
        <linearGradient id="Bv8aW6ev2NF7MS3hz4MA3c" x1="256" x2="256" y1="15.879" y2="487.27" xlink:href="#Bv8aW6ev2NF7MS3hz4MA3a" />
    </defs>
    <path fill="url(#Bv8aW6ev2NF7MS3hz4MA3a)" d="M501,143a26,26,0,0,0-26-26H36a26,26,0,0,0-26,26V370a26,26,0,0,0,26,26H475a26,26,0,0,0,26-26ZM489,370a14,14,0,0,1-14,14H36a14,14,0,0,1-14-14V143a14,14,0,0,1,14-14H475a14,14,0,0,1,14,14Z" />
    <path fill="url(#Bv8aW6ev2NF7MS3hz4MA3b)" d="M470,142H39a6,6,0,0,0-6,6V367a6,6,0,0,0,6,6H470a6,6,0,0,0,6-6V148A6,6,0,0,0,470,142Zm-6,58h-8a36.04,36.04,0,0,1-36-36V154h44ZM408,361H104V348a48.053,48.053,0,0,0-48-48H45V213H55.5c26.467,0,47.5-22.033,47.5-48.5V154H408v10a48.055,48.055,0,0,0,48,48h8v88h-8a48.053,48.053,0,0,0-48,48ZM45,154H91v10.5C91,184.351,75.351,201,55.5,201H45V154Zm0,158H56a36.04,36.04,0,0,1,36,36v13H45Zm375,49V348a36.04,36.04,0,0,1,36-36h8v49Z" />
    <path fill="url(#Bv8aW6ev2NF7MS3hz4MA3c)" d="M256,165.813A90.187,90.187,0,1,0,346.187,256,90.29,90.29,0,0,0,256,165.813Zm0,168.374A78.187,78.187,0,1,1,334.187,256,78.276,78.276,0,0,1,256,334.187Z" />
    <path fill="url(#Bv8aW6ev2NF7MS3hz4MA3c)" d="M254.875,215.891a5.86,5.86,0,0,0,2.25,0,16.823,16.823,0,0,1,15.689,16.757,6,6,0,0,0,12,0A28.859,28.859,0,0,0,262,204.467V197a6,6,0,0,0-12,0v7.467a28.814,28.814,0,0,0,6,57,16.8,16.8,0,0,1,.76,33.59,5.476,5.476,0,0,0-1.52,0,16.82,16.82,0,0,1-16.054-16.776,6,6,0,0,0-12,0A28.86,28.86,0,0,0,250,306.459V315a6,6,0,0,0,12,0v-8.541a28.814,28.814,0,0,0-6-57,16.8,16.8,0,0,1-1.125-33.572Z" />
</svg>